<svg width="308" height="65" viewBox="0 0 308 65" fill="none" xmlns="http://www.w3.org/2000/svg">
<path d="M1.40909 15V3.36364H5.47727C6.28788 3.36364 6.95644 3.50379 7.48295 3.78409C8.00947 4.06061 8.40152 4.43371 8.65909 4.90341C8.91667 5.36932 9.04545 5.88636 9.04545 6.45455C9.04545 6.95455 8.95644 7.36742 8.77841 7.69318C8.60417 8.01894 8.37311 8.27652 8.08523 8.46591C7.80114 8.6553 7.49242 8.79545 7.15909 8.88636V9C7.51515 9.02273 7.87311 9.14773 8.23295 9.375C8.5928 9.60227 8.89394 9.92803 9.13636 10.3523C9.37879 10.7765 9.5 11.2955 9.5 11.9091C9.5 12.4924 9.36742 13.017 9.10227 13.483C8.83712 13.9489 8.41856 14.3182 7.84659 14.5909C7.27462 14.8636 6.5303 15 5.61364 15H1.40909ZM2.81818 13.75H5.61364C6.53409 13.75 7.1875 13.572 7.57386 13.2159C7.96402 12.8561 8.15909 12.4205 8.15909 11.9091C8.15909 11.5152 8.05871 11.1515 7.85795 10.8182C7.6572 10.4811 7.37121 10.2121 7 10.0114C6.62879 9.80682 6.18939 9.70455 5.68182 9.70455H2.81818V13.75ZM2.81818 8.47727H5.43182C5.85606 8.47727 6.23864 8.39394 6.57955 8.22727C6.92424 8.06061 7.19697 7.82576 7.39773 7.52273C7.60227 7.2197 7.70455 6.86364 7.70455 6.45455C7.70455 5.94318 7.52652 5.50947 7.17045 5.15341C6.81439 4.79356 6.25 4.61364 5.47727 4.61364H2.81818V8.47727ZM15.499 15.1818C14.7111 15.1818 14.0198 14.9943 13.4251 14.6193C12.8342 14.2443 12.3721 13.7197 12.0387 13.0455C11.7092 12.3712 11.5444 11.5833 11.5444 10.6818C11.5444 9.77273 11.7092 8.97917 12.0387 8.30114C12.3721 7.62311 12.8342 7.09659 13.4251 6.72159C14.0198 6.34659 14.7111 6.15909 15.499 6.15909C16.2869 6.15909 16.9762 6.34659 17.5672 6.72159C18.1619 7.09659 18.624 7.62311 18.9535 8.30114C19.2869 8.97917 19.4535 9.77273 19.4535 10.6818C19.4535 11.5833 19.2869 12.3712 18.9535 13.0455C18.624 13.7197 18.1619 14.2443 17.5672 14.6193C16.9762 14.9943 16.2869 15.1818 15.499 15.1818ZM15.499 13.9773C16.0975 13.9773 16.5899 13.8239 16.9762 13.517C17.3626 13.2102 17.6486 12.8068 17.8342 12.3068C18.0198 11.8068 18.1126 11.2652 18.1126 10.6818C18.1126 10.0985 18.0198 9.55492 17.8342 9.05114C17.6486 8.54735 17.3626 8.14015 16.9762 7.82955C16.5899 7.51894 16.0975 7.36364 15.499 7.36364C14.9005 7.36364 14.4081 7.51894 14.0217 7.82955C13.6353 8.14015 13.3494 8.54735 13.1637 9.05114C12.9781 9.55492 12.8853 10.0985 12.8853 10.6818C12.8853 11.2652 12.9781 11.8068 13.1637 12.3068C13.3494 12.8068 13.6353 13.2102 14.0217 13.517C14.4081 13.8239 14.9005 13.9773 15.499 13.9773ZM23.1613 13.0227L27.3659 6.27273H28.9113V15H27.5704V8.25L23.3886 15H21.8204V6.27273H23.1613V13.0227ZM26.4795 3.36364H27.7295C27.7295 3.97727 27.5174 4.47917 27.0931 4.86932C26.6689 5.25947 26.0931 5.45455 25.3659 5.45455C24.6499 5.45455 24.0799 5.25947 23.6556 4.86932C23.2352 4.47917 23.0249 3.97727 23.0249 3.36364H24.2749C24.2749 3.65909 24.3564 3.91856 24.5193 4.14205C24.6859 4.36553 24.9681 4.47727 25.3659 4.47727C25.7636 4.47727 26.0477 4.36553 26.2181 4.14205C26.3924 3.91856 26.4795 3.65909 26.4795 3.36364ZM30.4998 7.52273V6.27273H37.5907V7.52273H34.727V15H33.3861V7.52273H30.4998ZM41.2076 13.0227L45.4121 6.27273H46.9576V15H45.6166V8.25L41.4348 15H39.8666V6.27273H41.2076V13.0227ZM61.2808 6.27273V15H59.9399V6.27273H61.2808ZM60.7581 10.4318V11.6818C60.455 11.7955 60.1539 11.8958 59.8547 11.983C59.5554 12.0663 59.241 12.1326 58.9115 12.1818C58.5819 12.2273 58.2202 12.25 57.8262 12.25C56.8376 12.25 56.0441 11.983 55.4456 11.4489C54.8509 10.9148 54.5535 10.1136 54.5535 9.04545V6.25H55.8944V9.04545C55.8944 9.49242 55.9797 9.85985 56.1501 10.1477C56.3206 10.4356 56.5516 10.6496 56.8433 10.7898C57.135 10.9299 57.4626 11 57.8262 11C58.3944 11 58.9077 10.9489 59.366 10.8466C59.8281 10.7405 60.2922 10.6023 60.7581 10.4318ZM67.7201 15.1818C66.8792 15.1818 66.1538 14.9962 65.544 14.625C64.9379 14.25 64.4701 13.7273 64.1406 13.0568C63.8148 12.3826 63.6519 11.5985 63.6519 10.7045C63.6519 9.81061 63.8148 9.02273 64.1406 8.34091C64.4701 7.6553 64.9284 7.12121 65.5156 6.73864C66.1065 6.35227 66.7959 6.15909 67.5838 6.15909C68.0383 6.15909 68.4872 6.23485 68.9303 6.38636C69.3735 6.53788 69.7769 6.78409 70.1406 7.125C70.5042 7.46212 70.794 7.90909 71.0099 8.46591C71.2258 9.02273 71.3338 9.70833 71.3338 10.5227V11.0909H64.6065V9.93182H69.9701C69.9701 9.43939 69.8716 9 69.6747 8.61364C69.4815 8.22727 69.205 7.92235 68.8451 7.69886C68.4891 7.47538 68.0686 7.36364 67.5838 7.36364C67.0497 7.36364 66.5875 7.49621 66.1974 7.76136C65.811 8.02273 65.5137 8.36364 65.3053 8.78409C65.097 9.20455 64.9928 9.6553 64.9928 10.1364V10.9091C64.9928 11.5682 65.1065 12.1269 65.3338 12.5852C65.5648 13.0398 65.8849 13.3864 66.294 13.625C66.7031 13.8598 67.1784 13.9773 67.7201 13.9773C68.0724 13.9773 68.3906 13.928 68.6747 13.8295C68.9625 13.7273 69.2106 13.5758 69.419 13.375C69.6273 13.1705 69.7883 12.9167 69.9019 12.6136L71.1974 12.9773C71.061 13.4167 70.8319 13.803 70.5099 14.1364C70.1879 14.4659 69.7902 14.7235 69.3167 14.9091C68.8432 15.0909 68.311 15.1818 67.7201 15.1818ZM73.6935 18.2727V6.27273H74.989V7.65909H75.1481C75.2466 7.50758 75.3829 7.31439 75.5572 7.07955C75.7352 6.84091 75.989 6.62879 76.3185 6.44318C76.6519 6.25379 77.1026 6.15909 77.6708 6.15909C78.4056 6.15909 79.0534 6.3428 79.614 6.71023C80.1746 7.07765 80.6121 7.59848 80.9265 8.27273C81.2409 8.94697 81.3981 9.74242 81.3981 10.6591C81.3981 11.5833 81.2409 12.3845 80.9265 13.0625C80.6121 13.7367 80.1765 14.2595 79.6197 14.6307C79.0628 14.9981 78.4208 15.1818 77.6935 15.1818C77.1329 15.1818 76.6841 15.089 76.3469 14.9034C76.0098 14.714 75.7503 14.5 75.5685 14.2614C75.3867 14.0189 75.2466 13.8182 75.1481 13.6591H75.0344V18.2727H73.6935ZM75.0117 10.6364C75.0117 11.2955 75.1083 11.8769 75.3015 12.3807C75.4947 12.8807 75.7769 13.2727 76.1481 13.5568C76.5193 13.8371 76.9738 13.9773 77.5117 13.9773C78.0723 13.9773 78.5401 13.8295 78.9151 13.5341C79.2939 13.2348 79.578 12.8333 79.7674 12.3295C79.9606 11.822 80.0572 11.2576 80.0572 10.6364C80.0572 10.0227 79.9625 9.4697 79.7731 8.97727C79.5875 8.48106 79.3053 8.08902 78.9265 7.80114C78.5515 7.50947 78.0799 7.36364 77.5117 7.36364C76.9662 7.36364 76.5079 7.50189 76.1367 7.77841C75.7655 8.05114 75.4852 8.43371 75.2958 8.92614C75.1064 9.41477 75.0117 9.98485 75.0117 10.6364ZM87.4226 15.1818C86.5817 15.1818 85.8563 14.9962 85.2465 14.625C84.6404 14.25 84.1726 13.7273 83.8431 13.0568C83.5173 12.3826 83.3544 11.5985 83.3544 10.7045C83.3544 9.81061 83.5173 9.02273 83.8431 8.34091C84.1726 7.6553 84.6309 7.12121 85.2181 6.73864C85.809 6.35227 86.4984 6.15909 87.2862 6.15909C87.7408 6.15909 88.1897 6.23485 88.6328 6.38636C89.076 6.53788 89.4794 6.78409 89.8431 7.125C90.2067 7.46212 90.4965 7.90909 90.7124 8.46591C90.9283 9.02273 91.0362 9.70833 91.0362 10.5227V11.0909H84.309V9.93182H89.6726C89.6726 9.43939 89.5741 9 89.3772 8.61364C89.184 8.22727 88.9075 7.92235 88.5476 7.69886C88.1916 7.47538 87.7711 7.36364 87.2862 7.36364C86.7522 7.36364 86.29 7.49621 85.8999 7.76136C85.5135 8.02273 85.2162 8.36364 85.0078 8.78409C84.7995 9.20455 84.6953 9.6553 84.6953 10.1364V10.9091C84.6953 11.5682 84.809 12.1269 85.0362 12.5852C85.2673 13.0398 85.5874 13.3864 85.9965 13.625C86.4056 13.8598 86.8809 13.9773 87.4226 13.9773C87.7749 13.9773 88.0931 13.928 88.3772 13.8295C88.665 13.7273 88.9131 13.5758 89.1215 13.375C89.3298 13.1705 89.4908 12.9167 89.6044 12.6136L90.8999 12.9773C90.7635 13.4167 90.5344 13.803 90.2124 14.1364C89.8904 14.4659 89.4927 14.7235 89.0192 14.9091C88.5457 15.0909 88.0135 15.1818 87.4226 15.1818ZM92.8506 12.7727H94.2824C94.3127 13.1667 94.4907 13.4659 94.8165 13.6705C95.146 13.875 95.5741 13.9773 96.1006 13.9773C96.6384 13.9773 97.0987 13.8674 97.4812 13.6477C97.8638 13.4242 98.0551 13.0644 98.0551 12.5682C98.0551 12.2765 97.9831 12.0227 97.8392 11.8068C97.6953 11.5871 97.4926 11.4167 97.2312 11.2955C96.9699 11.1742 96.6612 11.1136 96.3051 11.1136H94.8051V9.90909H96.3051C96.8392 9.90909 97.2331 9.78788 97.4869 9.54545C97.7445 9.30303 97.8733 9 97.8733 8.63636C97.8733 8.24621 97.735 7.93371 97.4585 7.69886C97.182 7.46023 96.79 7.34091 96.2824 7.34091C95.771 7.34091 95.3449 7.45644 95.004 7.6875C94.6631 7.91477 94.4831 8.20833 94.4642 8.56818H93.0551C93.0703 8.09848 93.2142 7.68371 93.4869 7.32386C93.7597 6.96023 94.1309 6.67614 94.6006 6.47159C95.0703 6.26326 95.6081 6.15909 96.2142 6.15909C96.8278 6.15909 97.36 6.26705 97.8108 6.48295C98.2653 6.69508 98.6157 6.98485 98.8619 7.35227C99.1119 7.71591 99.2369 8.12879 99.2369 8.59091C99.2369 9.08333 99.0987 9.48106 98.8222 9.78409C98.5456 10.0871 98.1991 10.303 97.7824 10.4318V10.5227C98.1119 10.5455 98.3979 10.6515 98.6403 10.8409C98.8866 11.0265 99.0778 11.2708 99.2142 11.5739C99.3506 11.8731 99.4187 12.2045 99.4187 12.5682C99.4187 13.0985 99.2767 13.5606 98.9926 13.9545C98.7085 14.3447 98.3184 14.6477 97.8222 14.8636C97.3259 15.0758 96.7597 15.1818 96.1233 15.1818C95.5059 15.1818 94.9528 15.0814 94.4642 14.8807C93.9756 14.6761 93.5873 14.3939 93.2994 14.0341C93.0153 13.6705 92.8657 13.25 92.8506 12.7727ZM102.6 15.0909C102.319 15.0909 102.079 14.9905 101.878 14.7898C101.677 14.589 101.577 14.3485 101.577 14.0682C101.577 13.7879 101.677 13.5473 101.878 13.3466C102.079 13.1458 102.319 13.0455 102.6 13.0455C102.88 13.0455 103.12 13.1458 103.321 13.3466C103.522 13.5473 103.622 13.7879 103.622 14.0682C103.622 14.2538 103.575 14.4242 103.48 14.5795C103.389 14.7348 103.266 14.8598 103.111 14.9545C102.959 15.0455 102.789 15.0909 102.6 15.0909ZM102.6 8.61364C102.319 8.61364 102.079 8.51326 101.878 8.3125C101.677 8.11174 101.577 7.87121 101.577 7.59091C101.577 7.31061 101.677 7.07008 101.878 6.86932C102.079 6.66856 102.319 6.56818 102.6 6.56818C102.88 6.56818 103.12 6.66856 103.321 6.86932C103.522 7.07008 103.622 7.31061 103.622 7.59091C103.622 7.77652 103.575 7.94697 103.48 8.10227C103.389 8.25758 103.266 8.38258 103.111 8.47727C102.959 8.56818 102.789 8.61364 102.6 8.61364Z" fill="#949494"/>
<rect x="106" y="34" width="96" height="31" rx="3" fill="white"/>
<rect x="106.5" y="34.5" width="95" height="30" rx="2.5" stroke="#5970FF" stroke-opacity="0.51"/>
<path d="M155.374 49.8286C154.887 49.8286 154.536 49.9927 154.18 50.1598V53.9442C154.521 53.9785 154.716 53.9785 155.04 53.9785C156.21 53.9785 156.37 53.4276 156.37 52.6596V50.8517C156.37 50.2844 156.187 49.8286 155.374 49.8286ZM147.609 49.6219C146.797 49.6219 146.613 50.0797 146.613 50.6465V50.9646H148.604V50.6465C148.604 50.0795 148.419 49.6219 147.609 49.6219ZM132.565 53.5613C132.565 54.0092 132.771 54.2423 133.225 54.2423C133.713 54.2423 134.001 54.0791 134.357 53.9108V53.0138H133.291C132.787 53.014 132.565 53.1099 132.565 53.5613ZM162.929 49.8286C162.116 49.8286 161.834 50.2844 161.834 50.8512V52.9223C161.834 53.4913 162.116 53.9476 162.929 53.9476C163.739 53.9476 164.023 53.4908 164.023 52.9223V50.8512C164.023 50.2844 163.739 49.8286 162.929 49.8286ZM128.582 55.8826H126.194V49.941H125V47.8931H126.194V46.6639C126.194 44.9934 126.868 44 128.782 44H130.377V46.0479H129.381C128.635 46.0479 128.586 46.3342 128.586 46.8681L128.582 47.8929H130.388L130.177 49.9408H128.582V55.8826ZM136.747 55.8979H134.756L134.671 55.3803C133.761 55.8979 132.95 55.982 132.415 55.982C130.954 55.982 130.177 54.9796 130.177 53.5934C130.177 51.9583 131.084 51.3742 132.706 51.3742H134.357V51.0207C134.357 50.1855 134.264 49.9408 133.015 49.9408H130.972L131.172 47.8929H133.405C136.146 47.8929 136.747 48.7835 136.747 51.0373V55.8979ZM143.517 50.0913C142.278 49.8728 141.922 49.8249 141.327 49.8249C140.256 49.8249 139.932 50.0679 139.932 51.002V52.7698C139.932 53.7042 140.256 53.9479 141.327 53.9479C141.922 53.9479 142.278 53.8997 143.517 53.6804V55.6772C142.432 55.9278 141.725 55.9933 141.128 55.9933C138.562 55.9933 137.544 54.6074 137.544 52.6047V51.17C137.544 49.1664 138.562 47.7775 141.128 47.7775C141.725 47.7775 142.432 47.8439 143.517 48.0943V50.0913ZM150.993 52.6047H146.612V52.7698C146.612 53.7042 146.936 53.9479 148.007 53.9479C148.969 53.9479 149.556 53.8997 150.793 53.6804V55.6772C149.601 55.9278 148.979 55.9933 147.809 55.9933C145.244 55.9933 144.224 54.6074 144.224 52.6047V50.9644C144.224 49.2128 144.981 47.7775 147.609 47.7775C150.237 47.7775 150.993 49.1958 150.993 50.9644L150.993 52.6047ZM158.758 52.6423C158.758 54.5777 158.22 55.9894 154.96 55.9894C153.783 55.9894 153.092 55.8826 151.792 55.6769V44.6147L154.18 44.2057V48.0748C154.695 47.8776 155.364 47.7777 155.972 47.7777C158.361 47.7777 158.758 48.8784 158.758 50.646V52.6423H158.758ZM166.414 52.6845C166.414 54.354 165.743 55.9736 162.937 55.9736C160.129 55.9736 159.446 54.354 159.446 52.6845V51.0727C159.446 49.4027 160.129 47.7829 162.937 47.7829C165.743 47.7829 166.414 49.4027 166.414 51.0727V52.6845ZM174.063 52.6845C174.063 54.354 173.391 55.9736 170.586 55.9736C167.778 55.9736 167.095 54.354 167.095 52.6845V51.0727C167.095 49.4027 167.778 47.7829 170.586 47.7829C173.391 47.7829 174.063 49.4027 174.063 51.0727V52.6845ZM181.914 55.8826H179.325L177.136 52.1276V55.8826H174.748V44.6147L177.136 44.2057V51.4595L179.325 47.8931H181.914L179.524 51.7848L181.914 55.8826ZM170.578 49.8286C169.767 49.8286 169.485 50.2844 169.485 50.8512V52.9223C169.485 53.4913 169.767 53.9476 170.578 53.9476C171.388 53.9476 171.675 53.4908 171.675 52.9223V50.8512C171.675 50.2844 171.388 49.8286 170.578 49.8286ZM183.277 54.4816C183.68 54.4816 184 54.8185 184 55.2392C184 55.6666 183.68 56 183.274 56C182.872 56 182.545 55.6663 182.545 55.2392C182.545 54.8185 182.872 54.4816 183.274 54.4816H183.277ZM183.274 54.5995C182.95 54.5995 182.685 54.8857 182.685 55.2397C182.685 55.5998 182.95 55.8831 183.277 55.8831C183.604 55.8865 183.866 55.5998 183.866 55.2429C183.866 54.8862 183.604 54.5995 183.277 54.5995H183.274ZM183.136 55.6809H183.006V54.835C183.074 54.8249 183.14 54.8153 183.238 54.8153C183.362 54.8153 183.444 54.8417 183.493 54.879C183.542 54.9164 183.568 54.9734 183.568 55.0543C183.568 55.1653 183.497 55.2327 183.408 55.2599V55.2666C183.48 55.2802 183.529 55.3467 183.545 55.4713C183.565 55.603 183.585 55.6537 183.598 55.6809H183.46C183.441 55.6542 183.421 55.5761 183.405 55.4656C183.385 55.3573 183.333 55.3168 183.228 55.3168H183.136V55.6809H183.136ZM183.136 55.2125H183.231C183.339 55.2125 183.431 55.1719 183.431 55.0676C183.431 54.993 183.378 54.9191 183.231 54.9191C183.189 54.9191 183.159 54.9228 183.136 54.9257V55.2125Z" fill="#26559A"/>
<rect y="34" width="96" height="31" rx="3" fill="white"/>
<rect x="0.5" y="34.5" width="95" height="30" rx="2.5" stroke="#5970FF" stroke-opacity="0.51"/>
<path d="M43.4454 50.3005C43.4454 53.1165 41.2424 55.1916 38.5389 55.1916C35.8353 55.1916 33.6323 53.1165 33.6323 50.3005C33.6323 47.4647 35.8353 45.4094 38.5389 45.4094C41.2424 45.4094 43.4454 47.4647 43.4454 50.3005ZM41.2975 50.3005C41.2975 48.5408 40.0207 47.3368 38.5389 47.3368C37.057 47.3368 35.7802 48.5408 35.7802 50.3005C35.7802 52.0426 37.057 53.2643 38.5389 53.2643C40.0207 53.2643 41.2975 52.0404 41.2975 50.3005Z" fill="#EA4335"/>
<path d="M54.0303 50.3005C54.0303 53.1165 51.8274 55.1916 49.1238 55.1916C46.4203 55.1916 44.2173 53.1165 44.2173 50.3005C44.2173 47.4669 46.4203 45.4094 49.1238 45.4094C51.8274 45.4094 54.0303 47.4647 54.0303 50.3005ZM51.8825 50.3005C51.8825 48.5408 50.6057 47.3368 49.1238 47.3368C47.6419 47.3368 46.3651 48.5408 46.3651 50.3005C46.3651 52.0426 47.6419 53.2643 49.1238 53.2643C50.6057 53.2643 51.8825 52.0404 51.8825 50.3005Z" fill="#FBBC05"/>
<path d="M64.1743 45.7049V54.486C64.1743 58.098 62.0441 59.5733 59.5258 59.5733C57.1552 59.5733 55.7284 57.9878 55.1904 56.6911L57.0604 55.9127C57.3934 56.7088 58.2093 57.6482 59.5236 57.6482C61.1355 57.6482 62.1345 56.6536 62.1345 54.7814V54.078H62.0595C61.5788 54.6712 60.6526 55.1894 59.4839 55.1894C57.0383 55.1894 54.7979 53.0592 54.7979 50.3182C54.7979 47.5573 57.0383 45.4094 59.4839 45.4094C60.6504 45.4094 61.5766 45.9276 62.0595 46.5032H62.1345V45.7071H64.1743V45.7049ZM62.2867 50.3182C62.2867 48.5959 61.1378 47.3368 59.6757 47.3368C58.1938 47.3368 56.9523 48.5959 56.9523 50.3182C56.9523 52.0228 58.1938 53.2643 59.6757 53.2643C61.1378 53.2643 62.2867 52.0228 62.2867 50.3182Z" fill="#4285F4"/>
<path d="M67.5373 40.5579V54.8915H65.4424V40.5579H67.5373Z" fill="#34A853"/>
<path d="M75.7006 51.9103L77.3677 53.0217C76.8297 53.8178 75.533 55.1894 73.2926 55.1894C70.514 55.1894 68.439 53.0416 68.439 50.2983C68.439 47.3897 70.5317 45.4072 73.0522 45.4072C75.5904 45.4072 76.8319 47.4272 77.2376 48.5187L77.4604 49.0744L70.922 51.7824C71.4226 52.7637 72.201 53.2643 73.2926 53.2643C74.3863 53.2643 75.1449 52.7262 75.7006 51.9103ZM70.5692 50.1506L74.9398 48.3357C74.6995 47.7249 73.9762 47.2993 73.125 47.2993C72.0334 47.2993 70.514 48.2629 70.5692 50.1506Z" fill="#EA4335"/>
<path d="M25.7027 49.028V46.9529H32.6953C32.7637 47.3146 32.799 47.7424 32.799 48.2055C32.799 49.7623 32.3734 51.6875 31.0018 53.0591C29.6676 54.4484 27.963 55.1893 25.7049 55.1893C21.5195 55.1893 18 51.7801 18 47.5946C18 43.4092 21.5195 40 25.7049 40C28.0203 40 29.6698 40.9085 30.9091 42.0927L29.4449 43.557C28.5562 42.7234 27.3522 42.0751 25.7027 42.0751C22.6463 42.0751 20.2559 44.5383 20.2559 47.5946C20.2559 50.651 22.6463 53.1142 25.7027 53.1142C27.6852 53.1142 28.8142 52.3181 29.5375 51.5948C30.1241 51.0083 30.51 50.1703 30.6622 49.0258L25.7027 49.028Z" fill="#4285F4"/>
<rect x="212" y="34" width="96" height="31" rx="3" fill="white"/>
<rect x="212.5" y="34.5" width="95" height="30" rx="2.5" stroke="#5970FF" stroke-opacity="0.51"/>
<path d="M285.537 55.1223C286.638 55.1223 287.419 54.9234 288 54.495V52.5518C287.403 52.9649 286.684 53.225 285.675 53.225C283.976 53.225 283.272 51.9092 283.272 49.8283C283.272 47.6403 284.129 46.5234 285.69 46.5234C286.608 46.5234 287.511 46.8447 287.985 47.1507V45.1311C287.48 44.8556 286.608 44.6567 285.414 44.6567C282.37 44.6567 280.794 46.8447 280.794 49.9048C280.809 53.2556 282.354 55.1223 285.537 55.1223ZM270.649 54.2349V52.2917C269.915 52.7966 268.66 53.2403 267.513 53.2403C265.769 53.2403 265.111 52.4141 265.003 50.7311H270.756V49.4764C270.756 45.9726 269.211 44.6567 266.84 44.6567C263.932 44.6567 262.555 46.8753 262.555 49.9201C262.555 53.424 264.284 55.1223 267.314 55.1223C268.829 55.1223 269.946 54.7092 270.649 54.2349ZM248.815 44.8403V48.8185H245.633V44.8403H243.246V54.9234H245.633V50.7158H248.815V54.9234H251.202V44.8403H248.815ZM261.959 53.0261H260.903V44.8403H253.956V45.6972C253.956 48.1606 253.803 51.3431 252.962 53.0261H252.197V57.2185H254.4V54.9234H259.74V57.2185H261.943V53.0261H261.959ZM278.254 54.9234H280.962L277.137 49.4917L280.503 44.8403H278.101L274.735 49.4917V44.8403H272.348V54.9234H274.735V49.966L278.254 54.9234ZM266.778 46.5234C267.956 46.5234 268.324 47.5026 268.324 48.7726V48.9715H265.003C265.065 47.3649 265.646 46.5234 266.778 46.5234ZM258.516 53.0261H255.15C255.808 51.5114 255.991 48.7573 255.991 47.013V46.707H258.516V53.0261Z" fill="black"/>
<path d="M241.257 54.9235H238.824V42.882H237.738C235.749 42.882 234.708 43.8765 234.708 45.3607C234.708 47.0437 235.427 47.824 236.911 48.8186L238.136 49.6448L234.616 54.9235H232L235.167 50.2109C233.346 48.9104 232.321 47.6404 232.321 45.4984C232.321 42.8208 234.188 41 237.722 41H241.242V54.9235H241.257Z" fill="#FC3F1D"/>
</svg>
